<?xml version="1.0" encoding="utf-8"?>
<!-- Generator: Adobe Illustrator 25.2.0, SVG Export Plug-In . SVG Version: 6.00 Build 0)  -->
<svg version="1.1" id="Layer_1" xmlns="http://www.w3.org/2000/svg" xmlns:xlink="http://www.w3.org/1999/xlink" x="0px" y="0px"
	 viewBox="0 0 128 128" style="enable-background:new 0 0 128 128;" xml:space="preserve">
<style type="text/css">
	.st0{fill:#FFFFFF;}
	.st1{fill:#E04D4D;}
</style>
<g>
	<g>
		<path class="st0" d="M61.46,126.74c-13.95,0-25.3-11.35-25.3-25.31c0-9.78,5.47-18.51,14.26-22.78l0.71-0.35V10.84
			c0-5.28,4.3-9.58,9.58-9.58h1.51c5.28,0,9.58,4.3,9.58,9.58v67.47l0.71,0.35c8.8,4.27,14.26,12.99,14.26,22.77
			C86.78,115.38,75.42,126.74,61.46,126.74z"/>
		<path class="st1" d="M62.22,2.53c4.58,0,8.31,3.73,8.31,8.31v66.68v1.58l1.42,0.69c8.36,4.06,13.55,12.34,13.55,21.63
			c0,13.26-10.79,24.05-24.05,24.05c-13.25,0-24.04-10.79-24.04-24.05c0-9.29,5.19-17.58,13.55-21.64l1.42-0.69v-1.58V10.84
			c0-4.58,3.73-8.31,8.31-8.31H62.22 M62.22,0h-1.51c-5.99,0-10.84,4.85-10.84,10.84v66.67c-8.87,4.3-14.98,13.39-14.98,23.91
			C34.9,116.1,46.79,128,61.47,128c14.68,0,26.57-11.9,26.57-26.57c0-10.51-6.11-19.6-14.98-23.9V10.84C73.06,4.85,68.21,0,62.22,0
			L62.22,0z"/>
	</g>
	<path class="st1" d="M82.4,101.43c0,11.5-9.37,20.82-20.93,20.82c-11.56,0-20.92-9.32-20.92-20.82c0-9.37,6.21-17.28,14.76-19.89
		V49.97c0-3.41,2.76-6.17,6.17-6.17c3.41,0,6.17,2.76,6.17,6.17v31.56C76.18,84.15,82.4,92.07,82.4,101.43z"/>
</g>
</svg>
